<?xml version="1.0" standalone="no"?>
<!DOCTYPE svg PUBLIC "-//W3C//DTD SVG 20010904//EN"
 "http://www.w3.org/TR/2001/REC-SVG-20010904/DTD/svg10.dtd">
<svg version="1.0" xmlns="http://www.w3.org/2000/svg"
 width="1563.000000pt" height="1563.000000pt" viewBox="0 0 1563.000000 1563.000000"
 preserveAspectRatio="xMidYMid meet">

<g transform="translate(0.000000,1563.000000) scale(0.100000,-0.100000)"
fill="#000000" stroke="none">
<path d="M5245 12144 c-153 -37 -206 -61 -289 -132 -63 -53 -139 -155 -157
-209 -9 -29 -15 -34 -33 -28 -75 24 -157 36 -211 30 -214 -22 -392 -167 -445
-364 -10 -38 -14 -42 -33 -37 -181 53 -370 5 -502 -127 -66 -66 -102 -127
-129 -216 -14 -49 -16 -178 -16 -1225 0 -1274 -2 -1216 57 -1334 95 -190 350
-303 561 -248 l52 13 16 -59 c44 -156 199 -299 364 -337 66 -15 165 -13 238 5
35 9 65 14 66 13 2 -2 18 -33 36 -69 48 -95 157 -201 253 -245 94 -44 143 -55
242 -55 87 0 148 11 210 37 45 19 1923 1099 1943 1118 10 9 -20 31 -148 104
-88 51 -167 90 -175 87 -8 -3 -393 -224 -856 -492 -463 -267 -860 -495 -883
-505 -80 -36 -182 -17 -248 48 -39 38 -73 108 -66 138 1 9 56 48 123 87 66 38
452 261 858 495 405 234 737 428 737 432 -1 3 -73 48 -162 98 l-161 93 -698
-404 -699 -404 0 189 c0 185 0 189 23 202 12 8 250 146 530 308 279 161 507
295 507 298 0 4 -73 48 -162 99 l-161 92 -365 -210 c-200 -116 -366 -209 -368
-207 -2 2 -3 279 -2 614 l3 611 2496 -1442 c1373 -793 2520 -1450 2550 -1460
70 -24 212 -32 292 -16 157 31 317 153 387 296 l35 70 60 -19 c47 -14 80 -18
150 -14 165 8 304 84 391 214 36 52 50 85 79 180 3 8 16 8 51 -3 62 -18 175
-18 249 1 176 46 327 204 364 383 8 37 11 398 11 1190 0 1245 1 1211 -60 1331
-90 180 -311 293 -507 262 -38 -6 -76 -12 -86 -14 -13 -1 -23 14 -41 64 -81
231 -330 375 -561 326 -38 -9 -77 -18 -86 -22 -12 -4 -24 10 -49 62 -37 76
-127 176 -200 223 -88 56 -182 82 -300 83 -87 0 -117 -4 -176 -25 -68 -24
-1984 -1122 -1984 -1137 1 -3 73 -48 161 -99 l161 -92 876 507 877 507 75 4
c69 3 79 0 127 -27 56 -33 97 -90 108 -151 6 -35 5 -35 -67 -76 -127 -70
-1643 -946 -1650 -953 -6 -5 289 -182 317 -189 6 -2 313 171 681 384 368 212
681 392 697 400 l27 15 0 -189 0 -188 -87 -50 c-361 -207 -951 -549 -966 -559
-15 -11 3 -24 143 -104 88 -50 164 -91 169 -91 6 0 173 94 373 210 l363 209 3
-611 c1 -336 0 -613 -3 -616 -2 -3 -35 13 -72 35 -53 32 -4401 2543 -4805
2776 -131 75 -219 106 -321 111 -45 3 -91 3 -102 0z m170 -353 c22 -10 1156
-663 2520 -1451 1364 -788 2510 -1450 2548 -1472 l67 -39 0 -190 0 -191 -32
20 c-44 27 -540 313 -3196 1842 -1937 1115 -2232 1288 -2232 1308 0 59 73 154
140 181 42 16 141 12 185 -8z m-715 -354 l55 -33 3 -188 c2 -149 0 -187 -10
-183 -7 3 -83 46 -168 95 l-155 90 0 64 c0 80 18 123 68 159 59 43 132 41 207
-4z m6431 10 c59 -40 79 -80 79 -161 l0 -71 -122 -69 c-67 -38 -141 -80 -165
-94 l-43 -24 0 189 0 188 58 32 c72 41 142 45 193 10z m-3278 -1827 c1850
-1065 2697 -1558 2697 -1569 0 -26 -46 -114 -71 -138 -64 -59 -166 -77 -245
-45 -23 9 -1190 680 -2593 1491 l-2551 1474 0 190 0 189 33 -20 c18 -10 1247
-718 2730 -1572z m-3810 1436 l47 -28 0 -1197 0 -1197 -62 -32 c-75 -38 -117
-40 -178 -9 -33 16 -51 34 -68 67 l-22 45 2 1142 c3 1141 3 1142 24 1170 11
15 36 39 55 51 47 33 134 28 202 -12z m7760 9 c78 -53 72 43 75 -1200 2 -610
0 -1129 -3 -1153 -7 -50 -53 -108 -102 -128 -51 -22 -95 -17 -162 18 l-61 31
0 1198 0 1199 53 30 c70 40 145 42 200 5z m-7208 -329 l160 -94 3 -810 2 -810
-137 -78 c-76 -43 -153 -86 -170 -97 l-33 -19 0 1001 c0 551 3 1001 8 1001 4
0 79 -43 167 -94z m6615 -905 l0 -999 -165 95 -165 95 2 811 3 811 160 93 c88
51 161 93 162 93 2 0 3 -450 3 -999z m-6450 -1385 l0 -185 -54 -30 c-95 -55
-161 -53 -226 5 -42 38 -65 106 -58 174 3 34 9 39 158 127 85 50 161 92 168
92 9 1 12 -42 12 -183z m6302 87 l148 -86 0 -69 c0 -42 -6 -80 -15 -98 -23
-45 -76 -80 -131 -86 -42 -5 -58 -1 -114 28 l-65 34 -3 188 c-2 176 -1 188 15
182 10 -4 84 -46 165 -93z"/>
<path d="M4520 6270 l0 -280 25 0 25 0 2 226 3 226 90 -176 c118 -232 109
-232 230 4 l90 175 3 -227 2 -228 25 0 25 0 -2 278 -3 277 -25 3 c-23 3 -32
-12 -125 -198 -55 -110 -102 -200 -105 -200 -3 0 -52 90 -109 200 -91 177
-105 200 -127 200 l-24 0 0 -280z"/>
<path d="M5200 6270 l0 -282 113 4 c127 4 166 19 192 74 33 70 11 200 -39 226
-11 6 -22 12 -24 13 -1 1 9 22 23 46 41 73 29 136 -33 172 -23 14 -60 20 -132
24 l-100 6 0 -283z m216 208 c22 -21 22 -84 0 -126 l-17 -33 -72 3 -72 3 -3
89 -3 88 75 -4 c53 -2 81 -8 92 -20z m-16 -207 c14 -4 35 -22 48 -41 20 -29
23 -44 19 -89 -5 -69 -33 -97 -110 -106 -105 -13 -102 -18 -105 123 l-3 122
63 -1 c35 -1 74 -4 88 -8z"/>
<path d="M5660 6271 l0 -281 93 0 c119 0 185 19 225 64 45 52 57 97 57 221 0
121 -14 163 -72 217 -42 40 -76 49 -195 55 l-108 6 0 -282z m247 203 c15 -11
39 -41 53 -65 21 -38 25 -56 25 -139 0 -81 -4 -102 -25 -145 -32 -63 -65 -82
-162 -91 l-78 -7 0 238 0 237 79 -3 c61 -3 86 -9 108 -25z"/>
<path d="M6477 6543 c-4 -3 -7 -129 -7 -280 l0 -273 30 0 30 0 0 125 0 125
105 0 105 0 0 25 0 25 -105 0 -105 0 0 105 0 105 115 0 115 0 0 25 0 25 -138
0 c-76 0 -142 -3 -145 -7z"/>
<path d="M6897 6544 c-14 -15 -6 -32 18 -38 l25 -6 0 -235 0 -235 -25 0 c-18
0 -25 -5 -25 -20 0 -18 7 -20 75 -20 68 0 75 2 75 20 0 15 -7 20 -25 20 l-25
0 0 235 0 235 26 6 c16 4 24 12 22 23 -3 12 -18 17 -69 19 -35 2 -68 0 -72 -4z"/>
<path d="M7210 6270 l0 -280 25 0 25 0 2 236 3 236 154 -236 c142 -218 156
-236 182 -236 l29 0 0 280 0 280 -25 0 -25 0 -2 -237 -3 -238 -155 238 c-140
215 -157 237 -182 237 l-28 0 0 -280z"/>
<path d="M7959 6523 c-31 -82 -189 -522 -189 -527 0 -3 11 -6 24 -6 21 0 27 9
49 73 l24 72 123 0 124 0 25 -72 c24 -67 28 -73 54 -73 15 0 27 3 27 8 -1 4
-47 129 -103 277 -89 235 -105 270 -124 273 -17 3 -26 -4 -34 -25z m66 -138
c15 -44 38 -108 51 -142 l23 -63 -108 0 -108 0 51 149 c28 83 54 147 57 143 3
-4 18 -43 34 -87z"/>
<path d="M8360 6270 l0 -280 25 0 25 0 2 236 3 236 154 -236 c142 -218 156
-236 182 -236 l29 0 0 280 0 280 -25 0 -25 0 -2 -237 -3 -238 -155 238 c-140
215 -157 237 -182 237 l-28 0 0 -280z"/>
<path d="M9120 6541 c-78 -25 -127 -70 -162 -146 -18 -41 -22 -67 -22 -150 0
-122 23 -181 87 -223 48 -32 142 -41 230 -22 60 12 70 19 62 43 -5 12 -14 12
-68 0 -111 -26 -180 -8 -231 60 -16 22 -21 47 -24 121 -5 113 12 177 61 224
40 39 75 52 137 52 74 0 80 -5 80 -61 0 -43 3 -49 20 -49 19 0 21 5 18 62 -3
58 -5 64 -31 76 -35 17 -124 24 -157 13z"/>
<path d="M9450 6531 c0 -11 9 -23 20 -26 19 -6 20 -15 20 -241 0 -227 -1 -234
-20 -234 -13 0 -20 -7 -20 -20 0 -18 7 -20 76 -20 66 0 75 2 72 18 -2 9 -13
18 -26 20 l-22 3 0 234 c0 225 1 234 20 240 11 3 20 15 20 26 0 17 -7 19 -70
19 -63 0 -70 -2 -70 -19z"/>
<path d="M9946 6541 c-10 -15 -196 -530 -196 -541 0 -6 10 -10 23 -10 19 0 26
11 47 73 l25 72 124 0 124 0 25 -72 c22 -68 26 -73 53 -73 16 0 29 1 29 3 0 1
-47 126 -104 277 -86 229 -106 276 -124 278 -11 2 -23 -1 -26 -7z m74 -206
c28 -75 50 -141 50 -146 0 -5 -47 -9 -104 -9 l-105 0 51 150 c28 83 53 149 55
147 2 -2 26 -66 53 -142z"/>
<path d="M10347 6544 c-4 -4 -7 -130 -7 -281 l0 -273 155 0 155 0 0 25 0 25
-125 0 -125 0 -2 253 c-3 245 -4 252 -23 255 -12 2 -24 0 -28 -4z"/>
<path d="M10877 6536 c-53 -20 -85 -52 -98 -98 -21 -81 17 -125 150 -169 112
-38 151 -69 151 -121 0 -68 -57 -108 -154 -108 -31 0 -76 7 -102 16 -39 13
-48 13 -55 2 -14 -21 -11 -25 34 -43 58 -24 156 -31 212 -15 117 33 158 159
78 242 -18 19 -57 38 -122 59 -110 35 -141 58 -141 104 0 71 63 102 188 91 67
-5 72 -4 72 14 0 26 -6 29 -96 35 -56 4 -90 1 -117 -9z"/>
<path d="M5490 5340 c0 -60 4 -100 10 -100 6 0 10 35 11 83 l0 82 32 -62 c17
-35 36 -63 42 -63 6 0 25 28 42 63 l32 62 0 -82 c1 -48 5 -83 11 -83 6 0 10
40 10 100 0 59 -4 100 -10 100 -5 0 -26 -33 -46 -72 l-37 -73 -36 73 c-50 101
-61 95 -61 -28z"/>
<path d="M5740 5340 l0 -100 55 0 c30 0 55 5 55 10 0 6 -20 10 -45 10 -45 0
-45 0 -45 35 0 34 1 35 40 35 22 0 40 5 40 10 0 6 -18 10 -40 10 -40 0 -40 0
-40 39 l0 40 48 4 c46 3 46 3 -10 5 l-58 2 0 -100z"/>
<path d="M5918 5433 l32 -4 0 -95 c0 -56 4 -94 10 -94 6 0 10 38 10 94 l0 95
33 4 c17 2 -2 4 -43 4 -41 0 -60 -2 -42 -4z"/>
<path d="M6132 5413 c-19 -48 -62 -165 -62 -169 0 -2 4 -4 10 -4 5 0 12 11 16
25 6 22 11 25 55 25 44 0 49 -3 55 -25 6 -25 25 -35 23 -12 -1 24 -66 181 -76
184 -6 2 -15 -9 -21 -24z m40 -53 l16 -50 -38 0 -38 0 16 50 c9 28 19 50 22
50 3 0 13 -22 22 -50z"/>
<path d="M6315 5343 c39 -107 41 -111 54 -97 13 13 72 186 66 192 -8 8 -10 3
-40 -88 l-28 -84 -13 29 c-8 17 -23 56 -35 88 -11 31 -25 57 -30 57 -5 0 7
-44 26 -97z"/>
<path d="M6500 5340 l0 -100 55 0 c30 0 55 5 55 10 0 6 -20 10 -45 10 -45 0
-45 0 -45 35 0 33 2 35 35 35 19 0 35 5 35 10 0 6 -16 10 -35 10 -34 0 -35 1
-35 39 0 40 0 40 43 44 40 3 40 4 -10 5 l-53 2 0 -100z"/>
<path d="M6660 5340 c0 -60 4 -100 10 -100 6 0 10 20 10 45 0 38 3 45 20 45
14 0 27 -14 42 -45 12 -25 26 -45 30 -45 11 0 10 2 -8 45 -12 30 -13 44 -5 62
14 31 14 66 -1 81 -7 7 -31 12 -55 12 l-43 0 0 -100z m78 78 c29 -29 7 -78
-35 -78 -21 0 -23 5 -23 45 0 40 2 45 23 45 13 0 28 -5 35 -12z"/>
<path d="M6845 5416 c-22 -33 -10 -52 41 -72 53 -20 69 -43 50 -69 -10 -14
-22 -17 -59 -13 -26 3 -47 2 -47 -2 0 -22 87 -27 112 -7 40 32 26 80 -29 97
-64 21 -75 36 -46 65 11 12 26 15 50 12 18 -3 33 -2 33 4 0 5 -20 9 -45 9 -36
0 -48 -5 -60 -24z"/>
<path d="M7020 5340 l0 -100 55 0 c30 0 55 5 55 10 0 6 -20 10 -45 10 -45 0
-45 0 -45 35 0 33 2 35 35 35 19 0 35 5 35 10 0 6 -16 10 -35 10 -34 0 -35 1
-35 39 0 40 0 40 43 44 40 3 40 4 -10 5 l-53 2 0 -100z"/>
<path d="M7280 5340 l0 -100 38 0 c21 0 46 6 56 13 19 14 25 72 8 89 -6 6 -8
26 -5 45 7 42 -5 53 -59 53 l-38 0 0 -100z m68 81 c8 -4 12 -19 10 -32 -2 -18
-10 -25 -30 -27 -26 -3 -28 -1 -28 32 0 37 17 47 48 27z m-4 -77 c49 -19 37
-84 -14 -84 -29 0 -30 2 -30 45 0 46 8 53 44 39z"/>
<path d="M7450 5360 c0 -91 17 -120 70 -120 53 0 70 29 70 120 0 47 -4 80 -10
80 -6 0 -10 -33 -10 -78 0 -85 -8 -102 -50 -102 -42 0 -50 17 -50 102 0 45 -4
78 -10 78 -6 0 -10 -33 -10 -80z"/>
<path d="M7660 5426 c-15 -19 -9 -56 10 -67 8 -5 32 -15 53 -23 66 -26 42 -81
-33 -74 -40 4 -53 -5 -24 -16 50 -19 114 8 114 48 0 28 -24 50 -72 66 -26 8
-38 17 -38 30 0 24 35 43 66 37 13 -2 24 0 24 4 0 15 -87 10 -100 -5z"/>
<path d="M7838 5428 c7 -7 12 -42 12 -88 0 -46 -5 -81 -12 -88 -9 -9 -7 -12
13 -12 24 0 24 1 24 100 0 99 0 100 -24 100 -20 0 -22 -3 -13 -12z"/>
<path d="M7940 5340 c0 -124 18 -134 22 -13 l3 87 55 -87 c30 -48 60 -87 67
-87 10 0 13 26 13 100 0 121 -18 135 -22 18 l-3 -82 -54 82 c-29 45 -60 82
-67 82 -11 0 -14 -22 -14 -100z"/>
<path d="M8160 5340 l0 -100 55 0 c30 0 55 5 55 10 0 6 -20 10 -45 10 -45 0
-45 0 -45 35 0 33 2 35 34 35 19 0 38 5 41 10 4 6 -10 10 -34 10 -41 0 -41 0
-41 39 0 40 0 40 43 44 40 3 40 4 -10 5 l-53 2 0 -100z"/>
<path d="M8325 5416 c-22 -33 -10 -52 41 -72 53 -20 69 -43 50 -69 -10 -14
-22 -17 -59 -13 -26 3 -47 2 -47 -2 0 -22 87 -27 112 -7 40 32 26 80 -29 97
-64 21 -75 36 -46 65 11 12 26 15 50 12 18 -3 33 -2 33 4 0 5 -20 9 -45 9 -36
0 -48 -5 -60 -24z"/>
<path d="M8505 5424 c-19 -19 -16 -53 5 -65 8 -5 32 -15 53 -23 29 -12 37 -20
37 -40 0 -30 -32 -42 -80 -32 -31 6 -42 -7 -14 -18 28 -11 69 -6 92 10 17 12
22 24 20 47 -3 27 -9 34 -48 48 -56 21 -73 44 -45 65 11 8 33 13 48 11 15 -2
30 0 33 5 10 16 -84 8 -101 -8z"/>
<path d="M8780 5340 l0 -100 39 0 c50 0 89 32 92 75 5 97 -15 125 -86 125
l-45 0 0 -100z m90 72 c16 -13 22 -29 22 -63 1 -64 -15 -89 -57 -89 l-35 0 0
85 c0 83 1 85 24 85 13 0 34 -8 46 -18z"/>
<path d="M8978 5428 c7 -7 12 -42 12 -88 0 -46 -5 -81 -12 -88 -9 -9 -7 -12
13 -12 24 0 24 1 24 100 0 99 0 100 -24 100 -20 0 -22 -3 -13 -12z"/>
<path d="M9095 5416 c-22 -33 -10 -52 41 -72 53 -20 69 -43 50 -69 -10 -14
-22 -17 -59 -13 -26 3 -47 2 -47 -2 0 -22 87 -27 112 -7 40 32 26 80 -29 97
-64 21 -75 36 -46 65 11 12 26 15 50 12 18 -3 33 -2 33 4 0 5 -20 9 -45 9 -36
0 -48 -5 -60 -24z"/>
<path d="M9283 5433 l27 -4 0 -95 c0 -56 4 -94 10 -94 6 0 10 38 10 94 l0 95
33 4 c17 2 1 4 -38 4 -38 0 -58 -2 -42 -4z"/>
<path d="M9440 5340 c0 -60 4 -100 10 -100 6 0 10 20 10 45 0 38 3 45 20 45
14 0 27 -14 42 -45 12 -25 26 -45 30 -45 11 0 10 2 -8 45 -12 30 -13 44 -5 62
14 31 14 66 -1 81 -7 7 -31 12 -55 12 l-43 0 0 -100z m78 78 c29 -29 7 -78
-35 -78 -21 0 -23 5 -23 45 0 40 2 45 23 45 13 0 28 -5 35 -12z"/>
<path d="M9625 5340 c0 -99 0 -100 25 -100 19 0 21 3 12 12 -17 17 -16 175 1
181 6 3 1 6 -13 6 l-25 1 0 -100z"/>
<path d="M9772 5434 c-21 -9 -42 -60 -42 -102 0 -56 31 -92 78 -92 20 0 44 5
52 10 11 7 0 9 -34 8 -60 -1 -76 16 -76 79 0 33 6 50 25 68 30 31 75 34 75 5
0 -11 5 -20 11 -20 6 0 9 10 7 23 -2 18 -10 22 -43 24 -22 1 -46 -1 -53 -3z"/>
<path d="M9938 5433 l32 -4 0 -95 c0 -56 4 -94 10 -94 6 0 10 38 10 94 l0 95
28 4 c15 2 -4 4 -43 4 -38 0 -55 -2 -37 -4z"/>
</g>
</svg>
